<svg
  xmlns="http://www.w3.org/2000/svg"
  viewBox="0 -58 491 491">
  <path fill="none"
        d="M413.367,134.173 C442.810,134.173 464.054,144.081 477.101,163.889 C490.145,183.701 493.527,211.419 487.248,247.039 C480.356,286.118 464.151,317.197 438.636,340.276 C413.120,363.360 382.369,374.899 346.382,374.899 C312.577,374.899 287.159,363.407 270.129,340.412 C253.098,317.423 247.854,287.387 254.393,250.310 C262.436,204.693 294.865,138.807 351.677,52.658 L385.891,0.860 L472.586,0.860 C430.159,65.199 401.018,110.910 385.159,137.989 C387.553,137.810 391.587,137.082 397.265,135.808 C403.638,134.718 409.005,134.173 413.367,134.173 ZM380.405,197.421 C369.500,197.421 359.651,202.512 350.859,212.688 C342.067,222.869 336.261,235.955 333.441,251.946 C330.715,267.396 331.835,279.847 336.802,289.295 C341.769,298.748 349.709,303.472 360.614,303.472 L361.159,303.472 C372.426,303.472 382.416,298.612 391.127,288.887 C399.838,279.166 405.572,266.489 408.332,250.856 C410.990,235.772 409.588,223.095 404.132,212.825 C398.671,202.559 390.765,197.421 380.405,197.421 ZM245.040,164.025 C233.598,180.476 218.962,192.880 201.131,201.238 L238.165,365.358 L150.925,365.358 L113.359,199.602 L111.995,199.602 L82.769,365.358 L0.164,365.358 L64.342,1.405 L160.578,1.405 C199.469,1.405 228.423,11.403 247.434,31.393 C266.445,51.389 272.924,78.557 266.867,112.908 C263.757,130.539 256.482,147.578 245.040,164.025 ZM174.592,83.465 C167.423,76.198 154.073,72.287 134.542,71.742 L119.305,158.164 C155.965,157.439 176.488,144.626 180.880,119.724 C183.857,102.821 181.762,90.736 174.592,83.465 Z"/>
  <style>
    path { fill: #000; }
    @media (prefers-color-scheme: dark) {
    path { fill: #fff; }
    }
  </style>
</svg>
